<svg width="32" height="32" viewBox="0 0 32 32" fill="none" xmlns="http://www.w3.org/2000/svg">
<path fill-rule="evenodd" clip-rule="evenodd" d="M8.73042 5.76175C9.54648 3.70635 11.5911 2.28571 13.9382 2.28571C14.6637 2.28571 15.3599 2.42123 15.9998 2.66909C16.6396 2.42123 17.3358 2.28571 18.0613 2.28571C20.4084 2.28571 22.4531 3.70638 23.2691 5.76181C24.8979 6.54266 26.1007 8.08405 26.3471 9.94209C27.2249 10.899 27.7681 12.1693 27.7681 13.5699C27.7681 13.6162 27.7675 13.6624 27.7663 13.7085C28.6178 14.6595 29.1426 15.9101 29.1426 17.2871C29.1426 20.3405 26.5947 22.7301 23.5591 22.7301C22.8336 22.7301 22.1373 22.5946 21.4974 22.3467C20.8576 22.5946 20.1613 22.7301 19.4358 22.7301C18.4401 22.7301 17.5009 22.475 16.687 22.0257C15.8731 22.475 14.9338 22.7301 13.9382 22.7301C12.9425 22.7301 12.0033 22.475 11.1893 22.0257C10.3754 22.475 9.43615 22.7301 8.44047 22.7301C5.40493 22.7301 2.85693 20.3405 2.85693 17.2871C2.85693 15.9102 3.38173 14.6597 4.23311 13.7087C4.23192 13.6626 4.23132 13.6163 4.23132 13.57C4.23132 12.1693 4.77452 10.899 5.65226 9.94209C5.8987 8.08401 7.10158 6.54259 8.73042 5.76175ZM13.9382 5.20633C12.6316 5.20633 11.5896 6.0868 11.3362 7.18841C11.2201 7.69339 10.845 8.099 10.3507 8.25427C9.27161 8.59319 8.53967 9.54676 8.52652 10.6191C8.52139 11.037 8.33745 11.4327 8.02126 11.706C7.47742 12.176 7.15194 12.8416 7.15194 13.57C7.15194 13.7189 7.16541 13.8636 7.19092 14.0035C7.28555 14.5225 7.09294 15.0521 6.68706 15.3891C6.11906 15.8606 5.77755 16.5413 5.77755 17.2871C5.77755 18.6328 6.92163 19.8095 8.44047 19.8095C9.13826 19.8095 9.76436 19.5572 10.2343 19.1509C10.7827 18.6768 11.596 18.6768 12.1444 19.1509C12.6143 19.5572 13.2404 19.8095 13.9382 19.8095C14.636 19.8095 15.262 19.5572 15.732 19.151C16.2804 18.6769 17.0936 18.6769 17.642 19.151C18.1119 19.5572 18.738 19.8095 19.4358 19.8095C19.933 19.8095 20.3925 19.6815 20.7851 19.4621C21.2278 19.2148 21.7671 19.2148 22.2098 19.4621C22.6024 19.6815 23.0618 19.8095 23.5591 19.8095C25.078 19.8095 26.222 18.6328 26.222 17.2871C26.222 16.5412 25.8805 15.8605 25.3124 15.389C24.9065 15.0521 24.7139 14.5224 24.8085 14.0034C24.834 13.8636 24.8475 13.7188 24.8475 13.5699C24.8475 12.8415 24.522 12.176 23.9781 11.706C23.662 11.4327 23.478 11.037 23.4729 10.6191C23.4597 9.54677 22.7278 8.59323 21.6488 8.25429C21.1545 8.09901 20.7794 7.6934 20.6633 7.18843C20.4099 6.08681 19.3679 5.20633 18.0613 5.20633C17.5641 5.20633 17.1047 5.33425 16.712 5.55363C16.2694 5.80095 15.7301 5.80095 15.2875 5.55363C14.8948 5.33425 14.4354 5.20633 13.9382 5.20633Z" fill="#969696"/>
<path fill-rule="evenodd" clip-rule="evenodd" d="M4.72262 23.3077L2.85693 16.8888C6.12232 17.8861 10.8019 18.5108 15.9998 18.5108C21.1976 18.5108 25.8771 17.8861 29.1425 16.8889L27.2768 23.3077C26.67 25.3956 25.1887 27.0471 23.3012 27.9107V30.0316H20.3806H11.6188H8.69813V27.9107C6.81073 27.047 5.32947 25.3955 4.72262 23.3077Z" fill="white"/>
<path fill-rule="evenodd" clip-rule="evenodd" d="M23.3012 27.9107C25.1887 27.0471 26.67 25.3956 27.2768 23.3077L29.1425 16.8889C28.1701 17.1858 27.0724 17.4498 25.8728 17.674C23.0442 18.2028 19.6498 18.5108 15.9998 18.5108C12.3498 18.5108 8.95529 18.2027 6.12663 17.674C4.9271 17.4497 3.82931 17.1858 2.85693 16.8888L4.72262 23.3077C5.32947 25.3955 6.81073 27.047 8.69813 27.9107V30.0316H23.3012V27.9107ZM20.4921 27.111C20.7226 26.3015 21.2968 25.616 22.0861 25.2549C23.2214 24.7354 24.1085 23.744 24.4723 22.4925L24.9673 20.7895C22.2545 21.2048 19.1986 21.4314 15.9998 21.4314C12.8009 21.4314 9.74504 21.2048 7.03216 20.7894L7.52718 22.4925C7.89093 23.744 8.77805 24.7354 9.91334 25.2549C10.7026 25.616 11.2768 26.3015 11.5073 27.111H20.4921Z" fill="#969696"/>
<path d="M11.6185 13.2382C11.6185 13.6415 11.2916 13.9684 10.8884 13.9684C10.4851 13.9684 10.1582 13.6415 10.1582 13.2382C10.1582 12.835 10.4851 12.5081 10.8884 12.5081C11.2916 12.5081 11.6185 12.835 11.6185 13.2382Z" fill="#969696"/>
<path d="M14.5389 14.6979C14.5389 15.1011 14.212 15.428 13.8088 15.428C13.4055 15.428 13.0786 15.1011 13.0786 14.6979C13.0786 14.2946 13.4055 13.9677 13.8088 13.9677C14.212 13.9677 14.5389 14.2946 14.5389 14.6979Z" fill="#969696"/>
<path d="M20.3807 10.3174C20.3807 10.7207 20.0538 11.0476 19.6506 11.0476C19.2473 11.0476 18.9204 10.7207 18.9204 10.3174C18.9204 9.91417 19.2473 9.58727 19.6506 9.58727C20.0538 9.58727 20.3807 9.91417 20.3807 10.3174Z" fill="#969696"/>
</svg>
