<svg width="20" height="20" viewBox="0 0 20 20" fill="none" xmlns="http://www.w3.org/2000/svg">
<path fill-rule="evenodd" clip-rule="evenodd" d="M8.58829 0.5C6.98107 0.5 5.58091 1.47283 5.02208 2.88034C3.90667 3.41505 3.08296 4.47059 2.9142 5.74297C2.31314 6.39824 1.94116 7.26814 1.94116 8.22729C1.94116 8.25903 1.94157 8.2907 1.94239 8.32228C1.41548 8.91083 1.07125 9.66691 1.00987 10.503C1.61227 10.6866 2.28471 10.8516 3.01525 10.9948C3.00518 10.9218 3 10.8477 3 10.7727C3 10.262 3.23386 9.7959 3.62282 9.473C3.90076 9.24226 4.03265 8.87956 3.96785 8.52419C3.95038 8.42839 3.94116 8.32927 3.94116 8.22729C3.94116 7.72849 4.16404 7.27275 4.53646 6.95085C4.75298 6.7637 4.87894 6.49274 4.88245 6.20656C4.89146 5.47226 5.39268 4.81927 6.1316 4.58718C6.47013 4.48086 6.72696 4.2031 6.8065 3.8573C6.98002 3.10293 7.69356 2.5 8.58829 2.5C8.92878 2.5 9.24339 2.58759 9.51226 2.73782C9.81538 2.90718 10.1847 2.90718 10.4878 2.73782C10.7566 2.58759 11.0712 2.5 11.4117 2.5C12.3065 2.5 13.02 3.10294 13.1935 3.85731C13.2731 4.20311 13.5299 4.48086 13.8684 4.5872C14.6073 4.81929 15.1085 5.47227 15.1175 6.20656C15.121 6.49274 15.247 6.7637 15.4635 6.95085C15.8359 7.27275 16.0588 7.72848 16.0588 8.22728C16.0588 8.32924 16.0496 8.42835 16.0321 8.52414C15.9673 8.87952 16.0992 9.24222 16.3772 9.47294C16.7662 9.79585 17.0001 10.262 17.0001 10.7727C17.0001 10.8477 16.9949 10.9218 16.9848 10.9948C17.7154 10.8516 18.3878 10.6866 18.9902 10.503C18.9288 9.66685 18.5846 8.91072 18.0576 8.32215C18.0584 8.29061 18.0588 8.25898 18.0588 8.22728C18.0588 7.26813 17.6868 6.39824 17.0858 5.74298C16.917 4.47062 16.0933 3.41509 14.978 2.88038C14.4191 1.47285 13.019 0.5 11.4117 0.5C10.915 0.5 10.4381 0.592803 10 0.762533C9.56189 0.592803 9.08508 0.5 8.58829 0.5ZM18.992 10.5277L18.2921 12.9355C18.7365 12.3295 19.0001 11.5855 19.0001 10.7727C19.0001 10.6904 18.9973 10.6087 18.992 10.5277ZM1.70784 12.9353L1.00812 10.5279C1.00274 10.6088 1 10.6905 1 10.7727C1 11.5854 1.26356 12.3294 1.70784 12.9353Z" fill="#969696"/>
<path fill-rule="evenodd" clip-rule="evenodd" d="M15 18.0476C16.2925 17.4562 17.3068 16.3253 17.7224 14.8955L19 10.5C18.3341 10.7034 17.5824 10.8841 16.761 11.0377C14.824 11.3998 12.4995 11.6107 10.0001 11.6107C7.50055 11.6107 5.17607 11.3998 3.23904 11.0377C2.41762 10.8841 1.66587 10.7034 1 10.5L2.2776 14.8955C2.69316 16.3253 3.70752 17.4562 5 18.0476V19.5H15V18.0476ZM13.0764 17.5C13.2342 16.9457 13.6274 16.4762 14.1679 16.229C14.9453 15.8732 15.5528 15.1944 15.8019 14.3373L16.1409 13.1711C14.2832 13.4555 12.1906 13.6107 10.0001 13.6107C7.80952 13.6107 5.71688 13.4555 3.85914 13.1711L4.19812 14.3373C4.44721 15.1943 5.05471 15.8732 5.83214 16.229C6.37259 16.4762 6.7658 16.9457 6.92365 17.5H13.0764Z" fill="#969696"/>
<circle cx="6.5" cy="8" r="0.5" fill="#969696"/>
<circle cx="8.5" cy="9" r="0.5" fill="#969696"/>
<circle cx="12.5" cy="6" r="0.5" fill="#969696"/>
</svg>
