<svg width="345" height="230" viewBox="0 0 345 230" fill="none" xmlns="http://www.w3.org/2000/svg">
<rect x="1" y="1" width="343" height="228" rx="2" fill="#ECECEC" stroke="#969696" stroke-dasharray="4 4"/>
<path d="M146.773 144.109V152.791H146.041V148.24H144.762V152.342H144.059V144.305H144.762V147.605H146.041V144.109H146.773ZM139.674 150.643V145.174H142.926V145.809H140.436V149.988C141.632 149.983 142.457 149.939 143.424 149.744L143.492 150.389C142.447 150.604 141.563 150.638 140.23 150.643H139.674ZM155.943 151.092V151.727H147.994V151.092H150.211V149.021H148.717V148.387H150.074V145.555H148.697V144.92H155.182V145.555H153.805V148.387H155.162V149.021H153.668V151.092H155.943ZM150.836 148.387H153.053V145.555H150.836V148.387ZM150.982 151.092H152.906V149.021H150.982V151.092ZM162.057 146.443C162.057 147.972 163.067 149.549 164.303 150.154L163.834 150.77C162.877 150.271 162.076 149.241 161.69 148.035C161.305 149.314 160.484 150.413 159.508 150.936L159.02 150.32C160.289 149.695 161.295 148.03 161.305 146.443V144.861H162.057V146.443ZM165.104 152.791V144.109H165.865V147.635H167.32V148.299H165.865V152.791H165.104ZM170.914 145.975C170.919 147.146 171.842 148.201 173.141 148.611L172.75 149.227C171.739 148.88 170.938 148.167 170.543 147.254C170.167 148.24 169.352 149.021 168.316 149.402L167.916 148.787C169.22 148.333 170.138 147.205 170.143 145.975V145.467H168.111V144.842H172.916V145.467H170.914V145.975ZM169.352 152.605V149.881H170.113V151.961H175.23V152.605H169.352ZM174.195 150.486V144.119H174.957V150.486H174.195ZM181.334 144.52C182.496 144.515 183.385 145.193 183.551 146.189H185.367V144.109H186.139V148.768H185.367V146.824H183.556C183.404 147.85 182.511 148.533 181.334 148.533C180.011 148.533 179.073 147.713 179.078 146.521C179.073 145.345 180.011 144.515 181.334 144.52ZM179.811 146.521C179.811 147.312 180.44 147.884 181.334 147.889C182.208 147.884 182.838 147.312 182.838 146.521C182.838 145.721 182.208 145.164 181.334 145.174C180.44 145.164 179.811 145.721 179.811 146.521ZM180.543 152.674V149.207H181.314V150.311H185.367V149.207H186.139V152.674H180.543ZM181.314 152.049H185.367V150.926H181.314V152.049ZM195.533 151.072V151.717H187.584V151.072H191.158V149.432H188.58V146.756H193.775V145.389H188.561V144.754H194.527V147.381H189.342V148.797H194.732V149.432H191.91V151.072H195.533ZM203.238 148.289V148.924H197.242V144.92H203.15V145.555H198.004V148.289H203.238ZM196.227 151.609V150.965H204.176V151.609H196.227Z" fill="#969696"/>
<path d="M181 129L181 133C181 133.53 180.789 134.039 180.414 134.414C180.039 134.789 179.53 135 179 135L165 135C164.47 135 163.961 134.789 163.586 134.414C163.211 134.039 163 133.53 163 133L163 129" stroke="#969696" stroke-width="2" stroke-linecap="round" stroke-linejoin="round"/>
<path d="M177 122L172 117L167 122" stroke="#969696" stroke-width="2" stroke-linecap="round" stroke-linejoin="round"/>
<path d="M172 117L172 129" stroke="#969696" stroke-width="2" stroke-linecap="round" stroke-linejoin="round"/>
</svg>
