<svg width="20" height="20" viewBox="0 0 20 20" fill="none" xmlns="http://www.w3.org/2000/svg">
<path d="M5.752 13.0853C5.65067 13.0853 5.55467 13.0747 5.464 13.0533C5.37333 13.0373 5.29333 13.0027 5.224 12.9493C5.15467 12.896 5.09867 12.8187 5.056 12.7173C5.01867 12.616 5 12.4853 5 12.3253V7.60533C5 7.49333 5.01867 7.40267 5.056 7.33333C5.09333 7.25867 5.14133 7.20267 5.2 7.16533C5.25867 7.12267 5.32267 7.096 5.392 7.08533C5.46667 7.06933 5.54133 7.06133 5.616 7.06133C5.78667 7.06667 5.928 7.10667 6.04 7.18133C6.15733 7.256 6.216 7.39733 6.216 7.60533V11.7253C6.216 11.8427 6.22933 11.9147 6.256 11.9413C6.28267 11.968 6.34933 11.9813 6.456 11.9813H9.008C9.11467 11.9813 9.20267 11.9973 9.272 12.0293C9.34133 12.0613 9.39467 12.104 9.432 12.1573C9.47467 12.2107 9.504 12.2693 9.52 12.3333C9.536 12.3973 9.544 12.4613 9.544 12.5253C9.544 12.5947 9.536 12.664 9.52 12.7333C9.504 12.7973 9.47467 12.856 9.432 12.9093C9.38933 12.9627 9.33333 13.0053 9.264 13.0373C9.19467 13.0693 9.10933 13.0853 9.008 13.0853H5.752Z" fill="#969696"/>
<path d="M13.8813 7.46133C13.9239 7.344 13.9773 7.25333 14.0413 7.18933C14.1106 7.12533 14.1826 7.08267 14.2572 7.06133C14.3372 7.04 14.4146 7.03467 14.4893 7.04533C14.5639 7.05067 14.6306 7.064 14.6893 7.08533C14.8493 7.13867 14.9692 7.22667 15.0492 7.34933C15.1292 7.46667 15.1292 7.632 15.0492 7.84533L13.1613 12.6933C13.1026 12.8373 13.0146 12.9547 12.8973 13.0453C12.7853 13.136 12.6439 13.1813 12.4732 13.1813C12.3026 13.1813 12.1586 13.1387 12.0412 13.0533C11.9292 12.968 11.8439 12.848 11.7853 12.6933L9.90525 7.78933C9.86258 7.68267 9.84658 7.58933 9.85725 7.50933C9.86792 7.424 9.89192 7.352 9.92925 7.29333C9.97192 7.22933 10.0226 7.17867 10.0813 7.14133C10.1453 7.09867 10.2119 7.06667 10.2812 7.04533C10.3453 7.024 10.4146 7.01067 10.4893 7.00533C10.5639 6.99467 10.6359 7 10.7053 7.02133C10.7799 7.04267 10.8492 7.08533 10.9132 7.14933C10.9773 7.208 11.0306 7.29333 11.0733 7.40533L12.4732 11.2613L13.8813 7.46133Z" fill="#969696"/>
<rect x="2" y="2" width="16" height="16" rx="2" stroke="#969696" stroke-width="2"/>
</svg>
