<svg width="64" height="64" viewBox="0 0 64 64" fill="none" xmlns="http://www.w3.org/2000/svg">
<rect width="64" height="64" fill="white"/>
<mask id="path-1-outside-1_362_7622" maskUnits="userSpaceOnUse" x="9" y="2" width="21" height="60" fill="black">
<rect fill="white" x="9" y="2" width="21" height="60"/>
<path fill-rule="evenodd" clip-rule="evenodd" d="M12.7331 21.5949L13.3185 22.3956C13.9646 23.2794 14.7974 23.987 15.7415 24.4801C16.3596 24.803 16.6243 25.6892 16.5594 26.3835L13.9283 54.5347C13.6542 57.4671 15.9614 60 18.9066 60H19.0942C22.0394 60 24.3465 57.4671 24.0725 54.5347L21.4413 26.3835C21.3765 25.6892 21.6412 24.8029 22.2592 24.4801C23.2033 23.9869 24.036 23.2793 24.6822 22.3956L25.2675 21.5949C26.9446 19.3009 27.4387 16.3491 26.6 13.634L25.6998 10.72L24.8751 8.23842C24.0341 5.70774 21.6671 4 19.0003 4C16.3336 4 13.9665 5.70774 13.1255 8.23842L12.3008 10.72L11.4007 13.634C10.5619 16.3491 11.056 19.3009 12.7331 21.5949Z"/>
</mask>
<path d="M13.3185 22.3956L11.7039 23.576H11.7039L13.3185 22.3956ZM12.7331 21.5949L11.1186 22.7753H11.1186L12.7331 21.5949ZM13.9283 54.5347L15.9196 54.7208L13.9283 54.5347ZM24.0725 54.5347L22.0811 54.7208L24.0725 54.5347ZM24.6822 22.3956L26.2967 23.576H26.2967L24.6822 22.3956ZM25.2675 21.5949L26.882 22.7753L25.2675 21.5949ZM26.6 13.634L28.5109 13.0437L26.6 13.634ZM25.6998 10.72L27.6107 10.1297L27.6044 10.1094L27.5977 10.0893L25.6998 10.72ZM24.8751 8.23842L26.7731 7.6077V7.6077L24.8751 8.23842ZM13.1255 8.23842L11.2275 7.6077L11.2275 7.6077L13.1255 8.23842ZM12.3008 10.72L10.4029 10.0893L10.3962 10.1094L10.3899 10.1297L12.3008 10.72ZM11.4007 13.634L13.3116 14.2243L11.4007 13.634ZM21.4413 26.3835L19.45 26.5696V26.5696L21.4413 26.3835ZM22.2592 24.4801L23.1852 26.2528L22.2592 24.4801ZM15.7415 24.4801L14.8156 26.2529L15.7415 24.4801ZM16.5594 26.3835L14.5681 26.1974L16.5594 26.3835ZM14.933 21.2152L14.3477 20.4146L11.1186 22.7753L11.7039 23.576L14.933 21.2152ZM16.6675 22.7074C15.9915 22.3543 15.3956 21.8479 14.933 21.2152L11.7039 23.576C12.5336 24.7108 13.6033 25.6196 14.8156 26.2529L16.6675 22.7074ZM15.9196 54.7208L18.5507 26.5696L14.5681 26.1974L11.9369 54.3486L15.9196 54.7208ZM18.9066 58C17.1395 58 15.7551 56.4803 15.9196 54.7208L11.9369 54.3486C11.5532 58.454 14.7833 62 18.9066 62V58ZM19.0942 58H18.9066V62H19.0942V58ZM22.0811 54.7208C22.2456 56.4803 20.8613 58 19.0942 58V62C23.2174 62 26.4475 58.454 26.0638 54.3486L22.0811 54.7208ZM19.45 26.5696L22.0811 54.7208L26.0638 54.3486L23.4327 26.1974L19.45 26.5696ZM23.0676 21.2152C22.6051 21.8479 22.0092 22.3542 21.3332 22.7074L23.1852 26.2528C24.3974 25.6196 25.467 24.7108 26.2967 23.576L23.0676 21.2152ZM23.653 20.4146L23.0676 21.2152L26.2967 23.576L26.882 22.7753L23.653 20.4146ZM24.6891 14.2243C25.3413 16.3355 24.9571 18.6308 23.653 20.4146L26.882 22.7753C28.9322 19.9711 29.5362 16.3627 28.5109 13.0437L24.6891 14.2243ZM23.7889 11.3103L24.6891 14.2243L28.5109 13.0437L27.6107 10.1297L23.7889 11.3103ZM22.9772 8.86914L23.8019 11.3507L27.5977 10.0893L26.7731 7.6077L22.9772 8.86914ZM19.0003 6C20.8055 6 22.4079 7.15603 22.9772 8.86914L26.7731 7.6077C25.6604 4.25945 22.5286 2 19.0003 2V6ZM15.0234 8.86914C15.5927 7.15603 17.1951 6 19.0003 6V2C15.472 2 12.3402 4.25945 11.2275 7.6077L15.0234 8.86914ZM14.1988 11.3507L15.0234 8.86914L11.2275 7.6077L10.4029 10.0893L14.1988 11.3507ZM13.3116 14.2243L14.2117 11.3103L10.3899 10.1297L9.48976 13.0437L13.3116 14.2243ZM14.3477 20.4146C13.0435 18.6308 12.6594 16.3355 13.3116 14.2243L9.48976 13.0437C8.46446 16.3627 9.06842 19.9711 11.1186 22.7753L14.3477 20.4146ZM23.4327 26.1974C23.4315 26.1844 23.4306 26.1522 23.4365 26.109C23.4423 26.066 23.452 26.0333 23.4587 26.016C23.4659 25.9974 23.4615 26.0174 23.4274 26.0602C23.3915 26.1054 23.3149 26.1851 23.1852 26.2528L21.3332 22.7074C20.4587 23.1642 19.9755 23.9353 19.7296 24.569C19.4792 25.2142 19.3894 25.9214 19.45 26.5696L23.4327 26.1974ZM14.8156 26.2529C14.6859 26.1851 14.6092 26.1055 14.5733 26.0603C14.5392 26.0174 14.5348 25.9975 14.542 26.0161C14.5487 26.0334 14.5584 26.0661 14.5643 26.109C14.5702 26.1523 14.5693 26.1844 14.5681 26.1974L18.5507 26.5696C18.6113 25.9214 18.5215 25.2142 18.2711 24.569C18.0252 23.9353 17.5421 23.1642 16.6675 22.7074L14.8156 26.2529Z" fill="#969696" mask="url(#path-1-outside-1_362_7622)"/>
<path d="M22.0029 8.92358C23.0029 10.5903 24.6029 15.1236 23.0029 19.9236" stroke="#969696" stroke-width="2" stroke-linecap="round"/>
<path d="M36.6269 6.015C36.674 4.92489 37.5861 4.07367 38.6769 4.10193L38.7794 4.10459C39.8702 4.13284 40.737 5.03015 40.7275 6.12124L40.2771 58.127C40.2674 59.245 39.343 60.138 38.2253 60.109L36.3303 60.0599C35.2126 60.031 34.3357 59.0914 34.384 57.9743L36.6269 6.015Z" stroke="#969696" stroke-width="2"/>
<path d="M49.1287 6.015C49.0816 4.92489 48.1695 4.07367 47.0787 4.10193L46.9762 4.10459C45.8855 4.13284 45.0186 5.03015 45.0281 6.12124L45.4786 58.127C45.4882 59.245 46.4126 60.138 47.5303 60.109L49.4253 60.0599C50.543 60.031 51.4199 59.0914 51.3716 57.9743L49.1287 6.015Z" stroke="#969696" stroke-width="2"/>
</svg>
