<svg width="16" height="16" viewBox="0 0 16 16" fill="none" xmlns="http://www.w3.org/2000/svg">
<rect width="16" height="16" rx="8" fill="#ECECEC"/>
<g clip-path="url(#clip0_280_3585)">
<path d="M11.6665 7.33331V7.58331C11.8046 7.58331 11.9165 7.47138 11.9165 7.33331H11.6665ZM9.6665 7.08331H9.4165V7.58331H9.6665V7.08331ZM11.4165 5.33331V7.33331H11.9165V5.33331H11.4165ZM11.6665 7.08331H9.6665V7.58331H11.6665V7.08331Z" fill="#969696"/>
<path d="M4.3335 10.6667V8.66669H6.3335" stroke="#969696" stroke-width="0.5" stroke-linejoin="round"/>
<path d="M5.17016 7C5.33922 6.52227 5.62654 6.09514 6.00532 5.75848C6.3841 5.42182 6.84198 5.18659 7.33626 5.07476C7.83053 4.96292 8.34508 4.97812 8.83189 5.11893C9.31871 5.25974 9.76191 5.52158 10.1202 5.88L11.6668 7.33334M4.3335 8.66667L5.88016 10.12C6.23841 10.4784 6.68162 10.7403 7.16843 10.8811C7.65524 11.0219 8.16979 11.0371 8.66407 10.9253C9.15834 10.8134 9.61623 10.5782 9.99501 10.2415C10.3738 9.90487 10.6611 9.47774 10.8302 9" stroke="#969696" stroke-width="0.5" stroke-linecap="round" stroke-linejoin="round"/>
</g>
<defs>
<clipPath id="clip0_280_3585">
<rect width="8" height="8" fill="white" transform="translate(4 4)"/>
</clipPath>
</defs>
</svg>
