<svg width="28" height="28" viewBox="0 0 28 28" fill="none" xmlns="http://www.w3.org/2000/svg">
<path fill-rule="evenodd" clip-rule="evenodd" d="M4.43567 12.9605C4.43567 8.25237 8.25237 4.43567 12.9605 4.43567C17.6687 4.43567 21.4854 8.25237 21.4854 12.9605C21.4854 17.6686 17.6687 21.4853 12.9605 21.4853C8.25237 21.4853 4.43567 17.6686 4.43567 12.9605ZM12.9605 2C6.90719 2 2 6.90719 2 12.9605C2 19.0138 6.90719 23.921 12.9605 23.921C15.5484 23.921 17.9268 23.0241 19.8019 21.5242L24.2777 26L26 24.2777L21.5242 19.802C23.0241 17.9269 23.921 15.5484 23.921 12.9605C23.921 6.90719 19.0138 2 12.9605 2Z" fill="#E0E0E0"/>
</svg>
