<svg width="33" height="33" viewBox="0 0 33 33" fill="none" xmlns="http://www.w3.org/2000/svg">
<path fill-rule="evenodd" clip-rule="evenodd" d="M7.93039 4.45061C8.84405 2.14941 11.1332 0.558868 13.761 0.558868C14.5732 0.558868 15.3528 0.710597 16.0691 0.988097C16.7854 0.710597 17.565 0.558868 18.3772 0.558868C21.0049 0.558868 23.2941 2.14943 24.2078 4.45067C26.0314 5.3249 27.378 7.05064 27.6539 9.13088C28.6366 10.2022 29.2448 11.6244 29.2448 13.1926C29.2448 13.2444 29.2441 13.2961 29.2428 13.3477C30.1961 14.4124 30.7837 15.8126 30.7837 17.3543C30.7837 20.7729 27.931 23.4482 24.5325 23.4482C23.7202 23.4482 22.9406 23.2965 22.2242 23.0189C21.5079 23.2965 20.7283 23.4482 19.916 23.4482C18.8013 23.4482 17.7497 23.1626 16.8385 22.6596C15.9273 23.1626 14.8757 23.4482 13.761 23.4482C12.6462 23.4482 11.5946 23.1626 10.6834 22.6595C9.77214 23.1626 8.72052 23.4482 7.60577 23.4482C4.2072 23.4482 1.35449 20.7729 1.35449 17.3543C1.35449 15.8127 1.94204 14.4126 2.89525 13.3479C2.89391 13.2963 2.89325 13.2445 2.89325 13.1926C2.89325 11.6244 3.50141 10.2022 4.48411 9.13087C4.76003 7.05059 6.10676 5.32482 7.93039 4.45061ZM13.761 3.82877C12.2981 3.82877 11.1315 4.81453 10.8478 6.04789C10.7178 6.61326 10.2979 7.06738 9.74441 7.24121C8.5363 7.62066 7.71683 8.68827 7.70211 9.88882C7.69637 10.3567 7.49043 10.7997 7.13643 11.1057C6.52754 11.632 6.16315 12.3771 6.16315 13.1926C6.16315 13.3593 6.17822 13.5214 6.20678 13.678C6.31273 14.259 6.09709 14.852 5.64267 15.2293C5.00674 15.7572 4.62439 16.5193 4.62439 17.3543C4.62439 18.861 5.90529 20.1783 7.60577 20.1783C8.38701 20.1783 9.08798 19.8959 9.61411 19.441C10.2281 18.9102 11.1386 18.9102 11.7527 19.441C12.2788 19.8959 12.9798 20.1783 13.761 20.1783C14.5422 20.1783 15.2431 19.8959 15.7693 19.4411C16.3833 18.9103 17.2937 18.9103 17.9077 19.4411C18.4339 19.8959 19.1348 20.1783 19.916 20.1783C20.4727 20.1783 20.9871 20.0351 21.4267 19.7894C21.9223 19.5125 22.5261 19.5125 23.0217 19.7894C23.4613 20.0351 23.9757 20.1783 24.5325 20.1783C26.2329 20.1783 27.5138 18.861 27.5138 17.3543C27.5138 16.5192 27.1315 15.7571 26.4954 15.2292C26.041 14.852 25.8253 14.259 25.9313 13.6779C25.9598 13.5213 25.9749 13.3593 25.9749 13.1926C25.9749 12.3771 25.6105 11.632 25.0016 11.1057C24.6476 10.7997 24.4417 10.3567 24.4359 9.88881C24.4212 8.68829 23.6018 7.6207 22.3937 7.24123C21.8402 7.06738 21.4204 6.61327 21.2903 6.04791C21.0066 4.81454 19.84 3.82877 18.3772 3.82877C17.8205 3.82877 17.3061 3.97198 16.8665 4.21759C16.371 4.49449 15.7672 4.49449 15.2716 4.21759C14.832 3.97198 14.3177 3.82877 13.761 3.82877Z" fill="#969696"/>
<path fill-rule="evenodd" clip-rule="evenodd" d="M3.4433 24.0946L1.35449 16.9081C5.01039 18.0246 10.2496 18.724 16.0692 18.724C21.8886 18.724 27.1277 18.0246 30.7836 16.9081L28.6948 24.0946C28.0154 26.4322 26.3569 28.2812 24.2437 29.2481V31.6226H20.9738H11.1641H7.89425V29.248C5.78113 28.2811 4.12272 26.4321 3.4433 24.0946Z" fill="#FFE91F"/>
<path fill-rule="evenodd" clip-rule="evenodd" d="M24.2437 29.2481C26.3569 28.2812 28.0154 26.4322 28.6948 24.0946L30.7836 16.9081C29.6949 17.2406 28.4659 17.5361 27.1229 17.7871C23.956 18.3791 20.1556 18.724 16.0692 18.724C11.9826 18.724 8.18216 18.3791 5.01521 17.7871C3.67223 17.536 2.44316 17.2405 1.35449 16.9081L3.4433 24.0946C4.12272 26.4321 5.78113 28.2811 7.89425 29.248V31.6226H24.2437V29.2481ZM21.0987 28.3527C21.3568 27.4464 21.9996 26.6789 22.8833 26.2746C24.1544 25.6931 25.1476 24.5831 25.5549 23.1819L26.1091 21.2752C23.0718 21.7402 19.6505 21.9939 16.0692 21.9939C12.4877 21.9939 9.06635 21.7402 6.02904 21.2752L6.58325 23.1819C6.99051 24.5831 7.98373 25.693 9.25478 26.2746C10.1384 26.6789 10.7813 27.4464 11.0393 28.3527H21.0987Z" fill="#969696"/>
<path d="M11.1638 12.8212C11.1638 13.2727 10.7978 13.6387 10.3463 13.6387C9.8948 13.6387 9.52881 13.2727 9.52881 12.8212C9.52881 12.3697 9.8948 12.0037 10.3463 12.0037C10.7978 12.0037 11.1638 12.3697 11.1638 12.8212Z" fill="#969696"/>
<path d="M14.4343 14.4556C14.4343 14.9071 14.0683 15.2731 13.6168 15.2731C13.1653 15.2731 12.7993 14.9071 12.7993 14.4556C12.7993 14.0041 13.1653 13.6381 13.6168 13.6381C14.0683 13.6381 14.4343 14.0041 14.4343 14.4556Z" fill="#969696"/>
<path d="M20.9743 9.55126C20.9743 10.0027 20.6083 10.3687 20.1568 10.3687C19.7054 10.3687 19.3394 10.0027 19.3394 9.55126C19.3394 9.09978 19.7054 8.73378 20.1568 8.73378C20.6083 8.73378 20.9743 9.09978 20.9743 9.55126Z" fill="#969696"/>
</svg>
