<svg width="282" height="90" viewBox="0 0 282 90" fill="none" xmlns="http://www.w3.org/2000/svg">
<rect x="1" y="1" width="280" height="88" rx="2" fill="#ECECEC"/>
<path d="M143 29H136C135.47 29 134.961 29.2107 134.586 29.5858C134.211 29.9609 134 30.4696 134 31V45C134 45.5304 134.211 46.0391 134.586 46.4142C134.961 46.7893 135.47 47 136 47H150C150.53 47 151.039 46.7893 151.414 46.4142C151.789 46.0391 152 45.5304 152 45V38" stroke="#969696" stroke-width="2" stroke-linecap="round" stroke-linejoin="round"/>
<path d="M150.5 27.5C150.898 27.1022 151.437 26.8787 152 26.8787C152.563 26.8787 153.102 27.1022 153.5 27.5C153.898 27.8978 154.121 28.4374 154.121 29C154.121 29.5626 153.898 30.1022 153.5 30.5L144 40L140 41L141 37L150.5 27.5Z" stroke="#969696" stroke-width="2" stroke-linecap="round" stroke-linejoin="round"/>
<path d="M92.4521 56.1094V58.6973H93.7705V59.3418H92.4521V62.3984H91.6904V56.1094H92.4521ZM86.0752 60.8555V56.8613H89.9424V57.5059H86.8369V60.2109C88.5801 60.2158 89.5713 60.1621 90.7334 59.9277L90.8311 60.5625C89.6104 60.7969 88.5752 60.8555 86.749 60.8555H86.0752ZM87.0225 64.6055V61.7637H87.7744V63.9609H92.8525V64.6055H87.0225ZM101.739 56.1094V64.791H101.007V56.1094H101.739ZM94.2979 62.3594C96.1875 61.2412 97.1348 59.6738 97.2861 57.8574H94.6885V57.2227H98.0479C98.0479 57.667 98.0088 58.1064 97.9307 58.5312H99.249V56.3438H99.9814V64.3516H99.249V61.3438H97.6377V60.709H99.249V59.166H97.7793C97.3594 60.6357 96.4072 61.9346 94.7666 62.916L94.2979 62.3594ZM110.138 56.1094V60.6504H109.376V59.5371H107.325V60.2988H103.39V56.5195H104.151V57.7695H106.573V56.5195H107.325V57.3594H109.376V56.1094H110.138ZM104.151 59.6738H106.573V58.375H104.151V59.6738ZM104.513 61.6855V61.0703H110.138V63.1113H105.294V64.0586H110.47V64.6738H104.532V62.5254H109.376V61.6855H104.513ZM107.325 58.9316H109.376V57.9551H107.325V58.9316ZM117.491 57.0762V60.0742H115.138V62.0078C116.139 61.998 117.086 61.9688 118.243 61.7637L118.302 62.3984C117.066 62.6182 116.07 62.6475 114.972 62.6523H114.396V59.4395H116.759V57.7109H114.376V57.0762H117.491ZM117.911 59.8691V59.2441H119.024V56.3242H119.747V64.332H119.024V59.8691H117.911ZM120.792 64.791V56.1094H121.524V64.791H120.792ZM125.831 58.4434C125.826 60.0303 126.905 61.6221 128.185 62.2031L127.716 62.8086C126.725 62.3301 125.87 61.2998 125.455 60.0645C125.055 61.373 124.2 62.4717 123.185 62.9844L122.696 62.3398C123.99 61.749 125.06 60.0889 125.069 58.4434V56.8613H125.831V58.4434ZM129.132 64.8105V56.1094H129.903V64.8105H129.132ZM138.565 56.1094V64.791H137.794V56.1094H138.565ZM131.378 61.9883C131.754 61.9883 132.159 61.9834 132.579 61.9785V57.6914H131.603V57.0566H136.563V57.6914H135.577V61.8662C136.065 61.832 136.549 61.7881 137.013 61.7344L137.062 62.3105C135.167 62.6035 133.072 62.6328 131.466 62.6426L131.378 61.9883ZM133.331 61.9639C133.819 61.9541 134.322 61.9346 134.825 61.9102V57.6914H133.331V61.9639ZM147.97 60.1426V60.748H140.021V60.1426H147.97ZM140.978 62.0176V61.4414H146.974V63.2871H141.759V64.1172H147.257V64.6738H140.987V62.7598H146.212V62.0176H140.978ZM141.026 56.9297V56.373H146.944V58.1699H141.817V58.9316H147.101V59.4883H141.056V57.6426H146.173V56.9297H141.026ZM154.122 57.7207C154.127 58.8779 154.977 59.9326 156.261 60.377L155.87 60.9727C154.879 60.6211 154.122 59.9131 153.751 59.0146C153.38 60.001 152.584 60.7676 151.563 61.1387L151.153 60.543C152.452 60.084 153.36 58.9658 153.37 57.7207V57.3496H151.388V56.7246H156.075V57.3496H154.122V57.7207ZM152.286 62.4277V61.8027H157.97V64.791H157.208V62.4277H152.286ZM157.208 61.3438V56.1094H157.97V58.4043H159.278V59.0586H157.97V61.3438H157.208ZM162.813 57.4766C162.804 58.7168 163.688 59.8057 164.962 60.2402L164.532 60.8359C163.575 60.4795 162.823 59.7715 162.447 58.8584C162.076 59.8984 161.285 60.7041 160.235 61.0996L159.815 60.4746C161.153 60.0059 162.042 58.8535 162.052 57.5059V56.6074H162.813V57.4766ZM161.231 63.1504C161.227 62.1055 162.335 61.5049 164.142 61.5098C165.943 61.5049 167.052 62.1055 167.052 63.1504C167.052 64.1855 165.943 64.7715 164.142 64.7715C162.335 64.7715 161.227 64.1855 161.231 63.1504ZM161.993 63.1504C161.988 63.7803 162.809 64.1611 164.142 64.1562C165.47 64.1611 166.29 63.7803 166.29 63.1504C166.29 62.501 165.47 62.1152 164.142 62.1152C162.809 62.1152 161.988 62.501 161.993 63.1504ZM164.317 58.6094V57.9746H166.251V56.1094H167.022V61.2559H166.251V58.6094H164.317ZM172.804 57.6133V58.2383H168.448V57.6133H170.255V56.373H171.017V57.6133H172.804ZM168.761 60.7969C168.761 59.6445 169.547 58.8291 170.626 58.8242C171.72 58.8291 172.501 59.6445 172.511 60.7969C172.501 61.9639 171.72 62.7842 170.626 62.7891C169.547 62.7842 168.761 61.9639 168.761 60.7969ZM169.444 60.7969C169.444 61.5684 169.938 62.1201 170.626 62.1152C171.319 62.1201 171.827 61.5684 171.827 60.7969C171.827 60.0352 171.319 59.4785 170.626 59.4688C169.938 59.4785 169.444 60.0352 169.444 60.7969ZM173.253 64.3613V56.3242H173.976V59.7715H175.128V56.1094H175.86V64.791H175.128V60.4062H173.976V64.3613H173.253ZM181.495 57.3398C181.49 58.502 183.038 59.4883 184.552 59.7129L184.269 60.3184C182.916 60.0889 181.593 59.3662 181.065 58.3213C180.538 59.3662 179.215 60.0889 177.882 60.3184L177.579 59.7129C179.088 59.4883 180.631 58.502 180.636 57.3398V57.2812H177.853V56.6562H184.269V57.2812H181.495V57.3398ZM177.11 61.6953V61.0605H185.021V61.6953H181.427V64.791H180.675V61.6953H177.11ZM188.331 58.5801C188.331 59.9619 189.005 61.4512 190.157 62.1348L189.718 62.7305C188.878 62.2227 188.277 61.2949 187.975 60.2354C187.657 61.3926 187.013 62.3887 186.144 62.916L185.655 62.3398C186.856 61.6367 187.589 60.0986 187.589 58.6094V56.9297H188.331V58.5801ZM189.2 59.8789V59.2246H190.675V56.2949H191.397V64.3516H190.675V59.8789H189.2ZM192.452 64.791V56.1094H193.194V64.791H192.452ZM202.345 63.0332V63.6777H194.396V63.0332H196.368V60.6943C195.626 60.3086 195.177 59.6836 195.177 58.8926C195.177 57.5498 196.495 56.666 198.351 56.6562C200.206 56.666 201.524 57.5498 201.524 58.8926C201.524 59.6689 201.09 60.2842 200.372 60.6699V63.0332H202.345ZM195.919 58.8926C195.914 59.8643 196.925 60.5137 198.351 60.5137C199.762 60.5137 200.782 59.8643 200.782 58.8926C200.782 57.9209 199.762 57.2812 198.351 57.291C196.925 57.2812 195.914 57.9209 195.919 58.8926ZM197.12 63.0332H199.601V60.9678C199.225 61.0654 198.805 61.1191 198.351 61.1191C197.906 61.1191 197.491 61.0703 197.12 60.9727V63.0332Z" fill="#969696"/>
<rect x="1" y="1" width="280" height="88" rx="2" stroke="#969696" stroke-dasharray="2 2"/>
</svg>
